<?xml version="1.0" encoding="UTF-8" standalone="no"?>
<svg width="2873px" height="3054px" viewBox="0 0 2873 3054" version="1.1" xmlns="http://www.w3.org/2000/svg" xmlns:xlink="http://www.w3.org/1999/xlink">
    <!-- Generator: Sketch 3.7.2 (28276) - http://www.bohemiancoding.com/sketch -->
    <title>Group 3</title>
    <desc>Created with Sketch.</desc>
    <defs></defs>
    <g id="Page-1" stroke="none" stroke-width="1" fill="none" fill-rule="evenodd" opacity="0.4">
        <g id="Group-3" transform="translate(-201.000000, -198.000000)" fill="#D0BC73">
            <g id="Group" transform="translate(1171.000000, 2281.500000) rotate(-284.000000) translate(-1171.000000, -2281.500000) translate(207.000000, 1316.000000)">
                <polygon id="Shape" points="907.33 1801.32 858.5 1837.24 809.67 1873.16 800.81 1923.87 851.85 1930.51 900.68 1894.59 949.52 1858.67 958.37 1807.97"></polygon>
                <polygon id="Shape" points="845.74 1717.59 796.9 1753.51 748.07 1789.43 739.22 1840.14 790.26 1846.78 839.09 1810.86 887.92 1774.94 896.78 1724.23"></polygon>
                <polygon id="Shape" points="784.14 1633.85 735.31 1669.78 686.48 1705.7 677.62 1756.4 728.66 1763.05 777.49 1727.12 826.33 1691.2 835.18 1640.5"></polygon>
                <polygon id="Shape" points="722.54 1550.12 673.71 1586.04 624.88 1621.96 616.03 1672.67 667.07 1679.31 715.9 1643.39 764.73 1607.47 773.59 1556.76"></polygon>
                <polygon id="Shape" points="660.95 1466.39 612.12 1502.31 563.29 1538.23 554.43 1588.93 605.47 1595.58 654.3 1559.66 703.14 1523.74 711.99 1473.03"></polygon>
                <polygon id="Shape" points="599.35 1382.65 550.52 1418.57 501.69 1454.49 492.83 1505.2 543.88 1511.84 592.71 1475.92 641.54 1440 650.4 1389.29"></polygon>
                <polygon id="Shape" points="537.76 1298.92 488.93 1334.84 440.1 1370.76 431.24 1421.46 482.28 1428.11 531.11 1392.19 579.95 1356.27 588.8 1305.56"></polygon>
                <polygon id="Shape" points="476.16 1215.18 427.33 1251.1 378.5 1287.02 369.64 1337.73 420.69 1344.37 469.52 1308.45 518.35 1272.53 527.21 1221.82"></polygon>
                <polygon id="Shape" points="414.57 1131.45 365.74 1167.37 316.91 1203.29 308.05 1253.99 359.09 1260.64 407.92 1224.72 456.76 1188.8 465.61 1138.09"></polygon>
                <polygon id="Shape" points="352.97 1047.71 304.14 1083.63 255.31 1119.55 246.45 1170.26 297.5 1176.9 346.33 1140.98 395.16 1105.06 404.02 1054.36"></polygon>
                <polygon id="Shape" points="291.38 963.98 242.55 999.9 193.72 1035.82 184.86 1086.52 235.9 1093.17 284.73 1057.25 333.56 1021.33 342.42 970.62"></polygon>
                <polygon id="Shape" points="229.78 880.24 180.95 916.16 132.12 952.08 123.26 1002.79 174.31 1009.43 223.14 973.51 271.97 937.59 280.82 886.89"></polygon>
                <polygon id="Shape" points="168.19 796.51 119.36 832.43 70.52 868.35 61.67 919.05 112.71 925.7 161.54 889.78 210.37 853.86 219.23 803.15"></polygon>
                <polygon id="Shape" points="106.59 712.77 57.76 748.69 8.93 784.62 0.07 835.32 51.12 841.96 99.95 806.04 148.78 770.12 157.64 719.42"></polygon>
                <polygon id="Shape" points="1068.8 1682.54 1019.97 1718.46 971.14 1754.38 962.28 1805.09 1013.33 1811.73 1062.16 1775.81 1110.99 1739.89 1119.85 1689.19"></polygon>
                <polygon id="Shape" points="1007.21 1598.81 958.38 1634.73 909.55 1670.65 900.69 1721.36 951.73 1728 1000.56 1692.08 1049.4 1656.16 1058.25 1605.45"></polygon>
                <polygon id="Shape" points="945.61 1515.07 896.78 1550.99 847.95 1586.91 839.09 1637.62 890.14 1644.26 938.97 1608.34 987.8 1572.42 996.66 1521.72"></polygon>
                <polygon id="Shape" points="884.02 1431.34 835.19 1467.26 786.36 1503.18 777.5 1553.89 828.54 1560.53 877.37 1524.61 926.2 1488.69 935.06 1437.98"></polygon>
                <polygon id="Shape" points="822.42 1347.61 773.59 1383.53 724.76 1419.45 715.9 1470.15 766.95 1476.8 815.78 1440.88 864.61 1404.95 873.47 1354.25"></polygon>
                <polygon id="Shape" points="760.83 1263.87 712 1299.79 663.17 1335.71 654.31 1386.42 705.35 1393.06 754.18 1357.14 803.01 1321.22 811.87 1270.51"></polygon>
                <polygon id="Shape" points="699.23 1180.14 650.4 1216.06 601.57 1251.98 592.71 1302.68 643.76 1309.33 692.59 1273.41 741.42 1237.49 750.28 1186.78"></polygon>
                <polygon id="Shape" points="637.64 1096.4 588.81 1132.32 539.97 1168.24 531.12 1218.95 582.16 1225.59 630.99 1189.67 679.82 1153.75 688.68 1103.04"></polygon>
                <polygon id="Shape" points="576.04 1012.67 527.21 1048.59 478.38 1084.51 469.52 1135.21 520.57 1141.86 569.4 1105.94 618.23 1070.02 627.09 1019.31"></polygon>
                <polygon id="Shape" points="514.45 928.93 465.62 964.85 416.78 1000.77 407.93 1051.48 458.97 1058.12 507.8 1022.2 556.63 986.28 565.49 935.57"></polygon>
                <polygon id="Shape" points="452.85 845.2 404.02 881.12 355.19 917.04 346.33 967.74 397.38 974.39 446.21 938.47 495.04 902.55 503.89 851.84"></polygon>
                <polygon id="Shape" points="391.26 761.46 342.43 797.38 293.59 833.3 284.74 884.01 335.78 890.65 384.61 854.73 433.44 818.81 442.3 768.11"></polygon>
                <polygon id="Shape" points="329.66 677.73 280.83 713.65 232 749.57 223.14 800.28 274.18 806.92 323.02 771 371.85 735.08 380.7 684.37"></polygon>
                <polygon id="Shape" points="268.07 593.99 219.24 629.91 170.4 665.83 161.55 716.54 212.59 723.18 261.42 687.26 310.25 651.34 319.11 600.64"></polygon>
                <polygon id="Shape" points="1230.28 1563.76 1181.45 1599.68 1132.62 1635.6 1123.76 1686.31 1174.8 1692.95 1223.63 1657.03 1272.47 1621.11 1281.32 1570.41"></polygon>
                <polygon id="Shape" points="1168.68 1480.03 1119.85 1515.95 1071.02 1551.87 1062.16 1602.57 1113.21 1609.22 1162.04 1573.3 1210.87 1537.38 1219.73 1486.67"></polygon>
                <polygon id="Shape" points="1107.09 1396.29 1058.26 1432.21 1009.43 1468.13 1000.57 1518.84 1051.61 1525.48 1100.44 1489.56 1149.27 1453.64 1158.13 1402.94"></polygon>
                <polygon id="Shape" points="1045.49 1312.56 996.66 1348.48 947.83 1384.4 938.97 1435.11 990.02 1441.75 1038.85 1405.83 1087.68 1369.91 1096.54 1319.2"></polygon>
                <polygon id="Shape" points="983.9 1228.82 935.07 1264.74 886.24 1300.66 877.38 1351.37 928.42 1358.01 977.25 1322.09 1026.08 1286.17 1034.94 1235.47"></polygon>
                <polygon id="Shape" points="922.3 1145.09 873.47 1181.01 824.64 1216.93 815.78 1267.64 866.83 1274.28 915.66 1238.36 964.49 1202.44 973.34 1151.73"></polygon>
                <polygon id="Shape" points="860.71 1061.36 811.88 1097.28 763.04 1133.2 754.19 1183.9 805.23 1190.55 854.06 1154.63 902.89 1118.7 911.75 1068"></polygon>
                <polygon id="Shape" points="799.11 977.62 750.28 1013.54 701.45 1049.46 692.59 1100.17 743.64 1106.81 792.47 1070.89 841.3 1034.97 850.16 984.26"></polygon>
                <polygon id="Shape" points="737.52 893.89 688.68 929.81 639.85 965.73 631 1016.43 682.04 1023.08 730.87 987.16 779.7 951.24 788.56 900.53"></polygon>
                <polygon id="Shape" points="675.92 810.15 627.09 846.07 578.26 881.99 569.4 932.7 620.45 939.34 669.28 903.42 718.11 867.5 726.96 816.79"></polygon>
                <polygon id="Shape" points="614.33 726.42 565.49 762.34 516.66 798.26 507.81 848.96 558.85 855.61 607.68 819.69 656.51 783.77 665.37 733.06"></polygon>
                <polygon id="Shape" points="552.73 642.68 503.9 678.6 455.07 714.52 446.21 765.23 497.26 771.87 546.09 735.95 594.92 700.03 603.77 649.33"></polygon>
                <polygon id="Shape" points="491.14 558.95 442.3 594.87 393.47 630.79 384.62 681.49 435.66 688.14 484.49 652.22 533.32 616.3 542.18 565.59"></polygon>
                <polygon id="Shape" points="429.54 475.21 380.71 511.13 331.88 547.05 323.02 597.76 374.06 604.4 422.89 568.48 471.73 532.56 480.58 481.86"></polygon>
                <polygon id="Shape" points="1391.75 1444.98 1342.92 1480.9 1294.09 1516.82 1285.23 1567.53 1336.28 1574.17 1385.11 1538.25 1433.94 1502.33 1442.8 1451.63"></polygon>
                <polygon id="Shape" points="1330.16 1361.25 1281.33 1397.17 1232.49 1433.09 1223.64 1483.79 1274.68 1490.44 1323.51 1454.52 1372.34 1418.6 1381.2 1367.89"></polygon>
                <polygon id="Shape" points="1268.56 1277.51 1219.73 1313.43 1170.9 1349.35 1162.04 1400.06 1213.09 1406.7 1261.92 1370.78 1310.75 1334.86 1319.61 1284.16"></polygon>
                <polygon id="Shape" points="1206.97 1193.78 1158.14 1229.7 1109.3 1265.62 1100.45 1316.32 1151.49 1322.97 1200.32 1287.05 1249.15 1251.13 1258.01 1200.42"></polygon>
                <polygon id="Shape" points="1145.37 1110.04 1096.54 1145.96 1047.71 1181.88 1038.85 1232.59 1089.9 1239.23 1138.73 1203.31 1187.56 1167.39 1196.41 1116.69"></polygon>
                <polygon id="Shape" points="1083.78 1026.31 1034.95 1062.23 986.11 1098.15 977.26 1148.86 1028.3 1155.5 1077.13 1119.58 1125.96 1083.66 1134.82 1032.95"></polygon>
                <polygon id="Shape" points="1022.18 942.57 973.35 978.49 924.52 1014.41 915.66 1065.12 966.7 1071.76 1015.54 1035.84 1064.37 999.92 1073.22 949.22"></polygon>
                <polygon id="Shape" points="960.59 858.84 911.76 894.76 862.92 930.68 854.07 981.39 905.11 988.03 953.94 952.11 1002.77 916.19 1011.63 865.48"></polygon>
                <polygon id="Shape" points="898.99 775.11 850.16 811.03 801.33 846.95 792.47 897.65 843.51 904.3 892.35 868.38 941.18 832.45 950.03 781.75"></polygon>
                <polygon id="Shape" points="837.39 691.37 788.56 727.29 739.73 763.21 730.88 813.92 781.92 820.56 830.75 784.64 879.58 748.72 888.44 698.01"></polygon>
                <polygon id="Shape" points="775.8 607.64 726.97 643.56 678.14 679.48 669.28 730.18 720.32 736.83 769.16 700.91 817.99 664.99 826.84 614.28"></polygon>
                <polygon id="Shape" points="714.2 523.9 665.37 559.82 616.54 595.74 607.68 646.45 658.73 653.09 707.56 617.17 756.39 581.25 765.25 530.55"></polygon>
                <polygon id="Shape" points="652.61 440.17 603.78 476.09 554.95 512.01 546.09 562.71 597.13 569.36 645.97 533.44 694.8 497.52 703.65 446.81"></polygon>
                <polygon id="Shape" points="591.01 356.43 542.18 392.35 493.35 428.27 484.49 478.98 535.54 485.62 584.37 449.7 633.2 413.78 642.06 363.08"></polygon>
                <polygon id="Shape" points="1553.23 1326.2 1504.4 1362.12 1455.56 1398.04 1446.71 1448.75 1497.75 1455.39 1546.58 1419.47 1595.41 1383.55 1604.27 1332.84"></polygon>
                <polygon id="Shape" points="1491.63 1242.47 1442.8 1278.39 1393.97 1314.31 1385.11 1365.01 1436.16 1371.66 1484.99 1335.74 1533.82 1299.82 1542.68 1249.11"></polygon>
                <polygon id="Shape" points="1430.04 1158.73 1381.2 1194.65 1332.37 1230.57 1323.52 1281.28 1374.56 1287.92 1423.39 1252 1472.22 1216.08 1481.08 1165.38"></polygon>
                <polygon id="Shape" points="1368.44 1075 1319.61 1110.92 1270.78 1146.84 1261.92 1197.54 1312.97 1204.19 1361.8 1168.27 1410.63 1132.35 1419.48 1081.64"></polygon>
                <polygon id="Shape" points="1306.85 991.26 1258.01 1027.18 1209.18 1063.1 1200.33 1113.81 1251.37 1120.45 1300.2 1084.53 1349.03 1048.61 1357.89 997.91"></polygon>
                <polygon id="Shape" points="1245.25 907.53 1196.42 943.45 1147.59 979.37 1138.73 1030.07 1189.78 1036.72 1238.61 1000.8 1287.44 964.88 1296.29 914.17"></polygon>
                <polygon id="Shape" points="1183.66 823.79 1134.82 859.71 1085.99 895.63 1077.14 946.34 1128.18 952.98 1177.01 917.06 1225.84 881.14 1234.7 830.44"></polygon>
                <polygon id="Shape" points="1122.06 740.06 1073.23 775.98 1024.4 811.9 1015.54 862.61 1066.58 869.25 1115.42 833.33 1164.25 797.41 1173.1 746.7"></polygon>
                <polygon id="Shape" points="1060.47 656.32 1011.63 692.24 962.8 728.16 953.95 778.87 1004.99 785.52 1053.82 749.6 1102.65 713.67 1111.51 662.97"></polygon>
                <polygon id="Shape" points="998.87 572.59 950.04 608.51 901.21 644.43 892.35 695.14 943.39 701.78 992.22 665.86 1041.06 629.94 1049.91 579.23"></polygon>
                <polygon id="Shape" points="937.27 488.86 888.44 524.78 839.61 560.7 830.76 611.4 881.8 618.05 930.63 582.13 979.46 546.2 988.32 495.5"></polygon>
                <polygon id="Shape" points="875.68 405.12 826.85 441.04 778.02 476.96 769.16 527.67 820.2 534.31 869.03 498.39 917.87 462.47 926.72 411.76"></polygon>
                <polygon id="Shape" points="814.08 321.39 765.25 357.31 716.42 393.23 707.56 443.93 758.61 450.58 807.44 414.66 856.27 378.74 865.13 328.03"></polygon>
                <polygon id="Shape" points="752.49 237.65 703.66 273.57 654.83 309.49 645.97 360.2 697.01 366.84 745.84 330.92 794.68 295 803.53 244.3"></polygon>
                <polygon id="Shape" points="1714.7 1207.42 1665.87 1243.34 1617.04 1279.26 1608.18 1329.97 1659.22 1336.61 1708.06 1300.69 1756.89 1264.77 1765.74 1214.06"></polygon>
                <polygon id="Shape" points="1653.11 1123.69 1604.28 1159.61 1555.44 1195.53 1546.59 1246.23 1597.63 1252.88 1646.46 1216.96 1695.29 1181.04 1704.15 1130.33"></polygon>
                <polygon id="Shape" points="1591.51 1039.95 1542.68 1075.87 1493.85 1111.79 1484.99 1162.5 1536.03 1169.14 1584.87 1133.22 1633.7 1097.3 1642.55 1046.59"></polygon>
                <polygon id="Shape" points="1529.91 956.22 1481.08 992.14 1432.25 1028.06 1423.4 1078.76 1474.44 1085.41 1523.27 1049.49 1572.1 1013.57 1580.96 962.86"></polygon>
                <polygon id="Shape" points="1468.32 872.48 1419.49 908.4 1370.66 944.32 1361.8 995.03 1412.84 1001.67 1461.68 965.75 1510.51 929.83 1519.36 879.13"></polygon>
                <polygon id="Shape" points="1406.72 788.75 1357.89 824.67 1309.06 860.59 1300.2 911.29 1351.25 917.94 1400.08 882.02 1448.91 846.1 1457.77 795.39"></polygon>
                <polygon id="Shape" points="1345.13 705.01 1296.3 740.93 1247.47 776.85 1238.61 827.56 1289.65 834.2 1338.49 798.28 1387.32 762.36 1396.17 711.66"></polygon>
                <polygon id="Shape" points="1283.53 621.28 1234.7 657.2 1185.87 693.12 1177.01 743.83 1228.06 750.47 1276.89 714.55 1325.72 678.63 1334.58 627.92"></polygon>
                <polygon id="Shape" points="1221.94 537.54 1173.11 573.46 1124.28 609.38 1115.42 660.09 1166.46 666.73 1215.3 630.81 1264.13 594.89 1272.98 544.19"></polygon>
                <polygon id="Shape" points="1160.34 453.81 1111.51 489.73 1062.68 525.65 1053.82 576.36 1104.87 583 1153.7 547.08 1202.53 511.16 1211.39 460.45"></polygon>
                <polygon id="Shape" points="1098.75 370.07 1049.92 405.99 1001.09 441.91 992.23 492.62 1043.27 499.27 1092.1 463.35 1140.93 427.42 1149.79 376.72"></polygon>
                <polygon id="Shape" points="1037.15 286.34 988.32 322.26 939.49 358.18 930.63 408.89 981.68 415.53 1030.51 379.61 1079.34 343.69 1088.2 292.98"></polygon>
                <polygon id="Shape" points="975.56 202.61 926.73 238.53 877.9 274.45 869.04 325.15 920.08 331.8 968.91 295.88 1017.74 259.95 1026.6 209.25"></polygon>
                <polygon id="Shape" points="913.96 118.87 865.13 154.79 816.3 190.71 807.44 241.42 858.49 248.06 907.32 212.14 956.15 176.22 965.01 125.51"></polygon>
                <polygon id="Shape" points="1927.22 1095.28 1876.18 1088.64 1827.34 1124.56 1778.51 1160.48 1769.66 1211.19 1820.7 1217.83 1869.53 1181.91 1918.36 1145.99"></polygon>
                <polygon id="Shape" points="1814.58 1004.91 1765.75 1040.82 1716.92 1076.75 1708.06 1127.45 1759.1 1134.1 1807.93 1098.18 1856.77 1062.26 1865.62 1011.55"></polygon>
                <polygon id="Shape" points="1752.99 921.17 1704.15 957.09 1655.32 993.01 1646.47 1043.72 1697.51 1050.36 1746.34 1014.44 1795.17 978.52 1804.03 927.81"></polygon>
                <polygon id="Shape" points="1691.39 837.44 1642.56 873.36 1593.73 909.28 1584.87 959.98 1635.91 966.63 1684.74 930.71 1733.58 894.79 1742.43 844.08"></polygon>
                <polygon id="Shape" points="1629.79 753.7 1580.96 789.62 1532.13 825.54 1523.28 876.25 1574.32 882.89 1623.15 846.97 1671.98 811.05 1680.84 760.35"></polygon>
                <polygon id="Shape" points="1568.2 669.97 1519.37 705.89 1470.54 741.81 1461.68 792.51 1512.72 799.16 1561.55 763.24 1610.39 727.32 1619.24 676.61"></polygon>
                <polygon id="Shape" points="1506.6 586.23 1457.77 622.15 1408.94 658.07 1400.08 708.78 1451.13 715.42 1499.96 679.5 1548.79 643.58 1557.65 592.88"></polygon>
                <polygon id="Shape" points="1445.01 502.5 1396.18 538.42 1347.35 574.34 1338.49 625.04 1389.53 631.69 1438.36 595.77 1487.2 559.85 1496.05 509.14"></polygon>
                <polygon id="Shape" points="1383.41 418.76 1334.58 454.68 1285.75 490.6 1276.89 541.31 1327.94 547.95 1376.77 512.03 1425.6 476.11 1434.46 425.41"></polygon>
                <polygon id="Shape" points="1321.82 335.03 1272.99 370.95 1224.16 406.87 1215.3 457.58 1266.34 464.22 1315.17 428.3 1364 392.38 1372.86 341.67"></polygon>
                <polygon id="Shape" points="1260.22 251.29 1211.39 287.21 1162.56 323.13 1153.7 373.84 1204.75 380.48 1253.58 344.56 1302.41 308.64 1311.27 257.94"></polygon>
                <polygon id="Shape" points="1198.63 167.56 1149.8 203.48 1100.97 239.4 1092.11 290.11 1143.15 296.75 1191.98 260.83 1240.81 224.91 1249.67 174.2"></polygon>
                <polygon id="Shape" points="1137.03 83.83 1088.2 119.74 1039.37 155.66 1030.51 206.37 1081.56 213.02 1130.39 177.1 1179.22 141.17 1188.07 90.47"></polygon>
                <polygon id="Shape" points="1075.44 0.09 1026.61 36.01 977.77 71.93 968.92 122.64 1019.96 129.28 1068.79 93.36 1117.62 57.44 1126.48 6.73"></polygon>
            </g>
            <g id="Group" transform="translate(2104.033231, 1168.940670) rotate(-284.000000) translate(-2104.033231, -1168.940670) translate(1140.033231, 203.440670)">
                <polygon id="Shape" points="907.33 1801.32 858.5 1837.24 809.67 1873.16 800.81 1923.87 851.85 1930.51 900.68 1894.59 949.52 1858.67 958.37 1807.97"></polygon>
                <polygon id="Shape" points="845.74 1717.59 796.9 1753.51 748.07 1789.43 739.22 1840.14 790.26 1846.78 839.09 1810.86 887.92 1774.94 896.78 1724.23"></polygon>
                <polygon id="Shape" points="784.14 1633.85 735.31 1669.78 686.48 1705.7 677.62 1756.4 728.66 1763.05 777.49 1727.12 826.33 1691.2 835.18 1640.5"></polygon>
                <polygon id="Shape" points="722.54 1550.12 673.71 1586.04 624.88 1621.96 616.03 1672.67 667.07 1679.31 715.9 1643.39 764.73 1607.47 773.59 1556.76"></polygon>
                <polygon id="Shape" points="660.95 1466.39 612.12 1502.31 563.29 1538.23 554.43 1588.93 605.47 1595.58 654.3 1559.66 703.14 1523.74 711.99 1473.03"></polygon>
                <polygon id="Shape" points="599.35 1382.65 550.52 1418.57 501.69 1454.49 492.83 1505.2 543.88 1511.84 592.71 1475.92 641.54 1440 650.4 1389.29"></polygon>
                <polygon id="Shape" points="537.76 1298.92 488.93 1334.84 440.1 1370.76 431.24 1421.46 482.28 1428.11 531.11 1392.19 579.95 1356.27 588.8 1305.56"></polygon>
                <polygon id="Shape" points="476.16 1215.18 427.33 1251.1 378.5 1287.02 369.64 1337.73 420.69 1344.37 469.52 1308.45 518.35 1272.53 527.21 1221.82"></polygon>
                <polygon id="Shape" points="414.57 1131.45 365.74 1167.37 316.91 1203.29 308.05 1253.99 359.09 1260.64 407.92 1224.72 456.76 1188.8 465.61 1138.09"></polygon>
                <polygon id="Shape" points="352.97 1047.71 304.14 1083.63 255.31 1119.55 246.45 1170.26 297.5 1176.9 346.33 1140.98 395.16 1105.06 404.02 1054.36"></polygon>
                <polygon id="Shape" points="291.38 963.98 242.55 999.9 193.72 1035.82 184.86 1086.52 235.9 1093.17 284.73 1057.25 333.56 1021.33 342.42 970.62"></polygon>
                <polygon id="Shape" points="229.78 880.24 180.95 916.16 132.12 952.08 123.26 1002.79 174.31 1009.43 223.14 973.51 271.97 937.59 280.82 886.89"></polygon>
                <polygon id="Shape" points="168.19 796.51 119.36 832.43 70.52 868.35 61.67 919.05 112.71 925.7 161.54 889.78 210.37 853.86 219.23 803.15"></polygon>
                <polygon id="Shape" points="106.59 712.77 57.76 748.69 8.93 784.62 0.07 835.32 51.12 841.96 99.95 806.04 148.78 770.12 157.64 719.42"></polygon>
                <polygon id="Shape" points="1068.8 1682.54 1019.97 1718.46 971.14 1754.38 962.28 1805.09 1013.33 1811.73 1062.16 1775.81 1110.99 1739.89 1119.85 1689.19"></polygon>
                <polygon id="Shape" points="1007.21 1598.81 958.38 1634.73 909.55 1670.65 900.69 1721.36 951.73 1728 1000.56 1692.08 1049.4 1656.16 1058.25 1605.45"></polygon>
                <polygon id="Shape" points="945.61 1515.07 896.78 1550.99 847.95 1586.91 839.09 1637.62 890.14 1644.26 938.97 1608.34 987.8 1572.42 996.66 1521.72"></polygon>
                <polygon id="Shape" points="884.02 1431.34 835.19 1467.26 786.36 1503.18 777.5 1553.89 828.54 1560.53 877.37 1524.61 926.2 1488.69 935.06 1437.98"></polygon>
                <polygon id="Shape" points="822.42 1347.61 773.59 1383.53 724.76 1419.45 715.9 1470.15 766.95 1476.8 815.78 1440.88 864.61 1404.95 873.47 1354.25"></polygon>
                <polygon id="Shape" points="760.83 1263.87 712 1299.79 663.17 1335.71 654.31 1386.42 705.35 1393.06 754.18 1357.14 803.01 1321.22 811.87 1270.51"></polygon>
                <polygon id="Shape" points="699.23 1180.14 650.4 1216.06 601.57 1251.98 592.71 1302.68 643.76 1309.33 692.59 1273.41 741.42 1237.49 750.28 1186.78"></polygon>
                <polygon id="Shape" points="637.64 1096.4 588.81 1132.32 539.97 1168.24 531.12 1218.95 582.16 1225.59 630.99 1189.67 679.82 1153.75 688.68 1103.04"></polygon>
                <polygon id="Shape" points="576.04 1012.67 527.21 1048.59 478.38 1084.51 469.52 1135.21 520.57 1141.86 569.4 1105.94 618.23 1070.02 627.09 1019.31"></polygon>
                <polygon id="Shape" points="514.45 928.93 465.62 964.85 416.78 1000.77 407.93 1051.48 458.97 1058.12 507.8 1022.2 556.63 986.28 565.49 935.57"></polygon>
                <polygon id="Shape" points="452.85 845.2 404.02 881.12 355.19 917.04 346.33 967.74 397.38 974.39 446.21 938.47 495.04 902.55 503.89 851.84"></polygon>
                <polygon id="Shape" points="391.26 761.46 342.43 797.38 293.59 833.3 284.74 884.01 335.78 890.65 384.61 854.73 433.44 818.81 442.3 768.11"></polygon>
                <polygon id="Shape" points="329.66 677.73 280.83 713.65 232 749.57 223.14 800.28 274.18 806.92 323.02 771 371.85 735.08 380.7 684.37"></polygon>
                <polygon id="Shape" points="268.07 593.99 219.24 629.91 170.4 665.83 161.55 716.54 212.59 723.18 261.42 687.26 310.25 651.34 319.11 600.64"></polygon>
                <polygon id="Shape" points="1230.28 1563.76 1181.45 1599.68 1132.62 1635.6 1123.76 1686.31 1174.8 1692.95 1223.63 1657.03 1272.47 1621.11 1281.32 1570.41"></polygon>
                <polygon id="Shape" points="1168.68 1480.03 1119.85 1515.95 1071.02 1551.87 1062.16 1602.57 1113.21 1609.22 1162.04 1573.3 1210.87 1537.38 1219.73 1486.67"></polygon>
                <polygon id="Shape" points="1107.09 1396.29 1058.26 1432.21 1009.43 1468.13 1000.57 1518.84 1051.61 1525.48 1100.44 1489.56 1149.27 1453.64 1158.13 1402.94"></polygon>
                <polygon id="Shape" points="1045.49 1312.56 996.66 1348.48 947.83 1384.4 938.97 1435.11 990.02 1441.75 1038.85 1405.83 1087.68 1369.91 1096.54 1319.2"></polygon>
                <polygon id="Shape" points="983.9 1228.82 935.07 1264.74 886.24 1300.66 877.38 1351.37 928.42 1358.01 977.25 1322.09 1026.08 1286.17 1034.94 1235.47"></polygon>
                <polygon id="Shape" points="922.3 1145.09 873.47 1181.01 824.64 1216.93 815.78 1267.64 866.83 1274.28 915.66 1238.36 964.49 1202.44 973.34 1151.73"></polygon>
                <polygon id="Shape" points="860.71 1061.36 811.88 1097.28 763.04 1133.2 754.19 1183.9 805.23 1190.55 854.06 1154.63 902.89 1118.7 911.75 1068"></polygon>
                <polygon id="Shape" points="799.11 977.62 750.28 1013.54 701.45 1049.46 692.59 1100.17 743.64 1106.81 792.47 1070.89 841.3 1034.97 850.16 984.26"></polygon>
                <polygon id="Shape" points="737.52 893.89 688.68 929.81 639.85 965.73 631 1016.43 682.04 1023.08 730.87 987.16 779.7 951.24 788.56 900.53"></polygon>
                <polygon id="Shape" points="675.92 810.15 627.09 846.07 578.26 881.99 569.4 932.7 620.45 939.34 669.28 903.42 718.11 867.5 726.96 816.79"></polygon>
                <polygon id="Shape" points="614.33 726.42 565.49 762.34 516.66 798.26 507.81 848.96 558.85 855.61 607.68 819.69 656.51 783.77 665.37 733.06"></polygon>
                <polygon id="Shape" points="552.73 642.68 503.9 678.6 455.07 714.52 446.21 765.23 497.26 771.87 546.09 735.95 594.92 700.03 603.77 649.33"></polygon>
                <polygon id="Shape" points="491.14 558.95 442.3 594.87 393.47 630.79 384.62 681.49 435.66 688.14 484.49 652.22 533.32 616.3 542.18 565.59"></polygon>
                <polygon id="Shape" points="429.54 475.21 380.71 511.13 331.88 547.05 323.02 597.76 374.06 604.4 422.89 568.48 471.73 532.56 480.58 481.86"></polygon>
                <polygon id="Shape" points="1391.75 1444.98 1342.92 1480.9 1294.09 1516.82 1285.23 1567.53 1336.28 1574.17 1385.11 1538.25 1433.94 1502.33 1442.8 1451.63"></polygon>
                <polygon id="Shape" points="1330.16 1361.25 1281.33 1397.17 1232.49 1433.09 1223.64 1483.79 1274.68 1490.44 1323.51 1454.52 1372.34 1418.6 1381.2 1367.89"></polygon>
                <polygon id="Shape" points="1268.56 1277.51 1219.73 1313.43 1170.9 1349.35 1162.04 1400.06 1213.09 1406.7 1261.92 1370.78 1310.75 1334.86 1319.61 1284.16"></polygon>
                <polygon id="Shape" points="1206.97 1193.78 1158.14 1229.7 1109.3 1265.62 1100.45 1316.32 1151.49 1322.97 1200.32 1287.05 1249.15 1251.13 1258.01 1200.42"></polygon>
                <polygon id="Shape" points="1145.37 1110.04 1096.54 1145.96 1047.71 1181.88 1038.85 1232.59 1089.9 1239.23 1138.73 1203.31 1187.56 1167.39 1196.41 1116.69"></polygon>
                <polygon id="Shape" points="1083.78 1026.31 1034.95 1062.23 986.11 1098.15 977.26 1148.86 1028.3 1155.5 1077.13 1119.58 1125.96 1083.66 1134.82 1032.95"></polygon>
                <polygon id="Shape" points="1022.18 942.57 973.35 978.49 924.52 1014.41 915.66 1065.12 966.7 1071.76 1015.54 1035.84 1064.37 999.92 1073.22 949.22"></polygon>
                <polygon id="Shape" points="960.59 858.84 911.76 894.76 862.92 930.68 854.07 981.39 905.11 988.03 953.94 952.11 1002.77 916.19 1011.63 865.48"></polygon>
                <polygon id="Shape" points="898.99 775.11 850.16 811.03 801.33 846.95 792.47 897.65 843.51 904.3 892.35 868.38 941.18 832.45 950.03 781.75"></polygon>
                <polygon id="Shape" points="837.39 691.37 788.56 727.29 739.73 763.21 730.88 813.92 781.92 820.56 830.75 784.64 879.58 748.72 888.44 698.01"></polygon>
                <polygon id="Shape" points="775.8 607.64 726.97 643.56 678.14 679.48 669.28 730.18 720.32 736.83 769.16 700.91 817.99 664.99 826.84 614.28"></polygon>
                <polygon id="Shape" points="714.2 523.9 665.37 559.82 616.54 595.74 607.68 646.45 658.73 653.09 707.56 617.17 756.39 581.25 765.25 530.55"></polygon>
                <polygon id="Shape" points="652.61 440.17 603.78 476.09 554.95 512.01 546.09 562.71 597.13 569.36 645.97 533.44 694.8 497.52 703.65 446.81"></polygon>
                <polygon id="Shape" points="591.01 356.43 542.18 392.35 493.35 428.27 484.49 478.98 535.54 485.62 584.37 449.7 633.2 413.78 642.06 363.08"></polygon>
                <polygon id="Shape" points="1553.23 1326.2 1504.4 1362.12 1455.56 1398.04 1446.71 1448.75 1497.75 1455.39 1546.58 1419.47 1595.41 1383.55 1604.27 1332.84"></polygon>
                <polygon id="Shape" points="1491.63 1242.47 1442.8 1278.39 1393.97 1314.31 1385.11 1365.01 1436.16 1371.66 1484.99 1335.74 1533.82 1299.82 1542.68 1249.11"></polygon>
                <polygon id="Shape" points="1430.04 1158.73 1381.2 1194.65 1332.37 1230.57 1323.52 1281.28 1374.56 1287.92 1423.39 1252 1472.22 1216.08 1481.08 1165.38"></polygon>
                <polygon id="Shape" points="1368.44 1075 1319.61 1110.92 1270.78 1146.84 1261.92 1197.54 1312.97 1204.19 1361.8 1168.27 1410.63 1132.35 1419.48 1081.64"></polygon>
                <polygon id="Shape" points="1306.85 991.26 1258.01 1027.18 1209.18 1063.1 1200.33 1113.81 1251.37 1120.45 1300.2 1084.53 1349.03 1048.61 1357.89 997.91"></polygon>
                <polygon id="Shape" points="1245.25 907.53 1196.42 943.45 1147.59 979.37 1138.73 1030.07 1189.78 1036.72 1238.61 1000.8 1287.44 964.88 1296.29 914.17"></polygon>
                <polygon id="Shape" points="1183.66 823.79 1134.82 859.71 1085.99 895.63 1077.14 946.34 1128.18 952.98 1177.01 917.06 1225.84 881.14 1234.7 830.44"></polygon>
                <polygon id="Shape" points="1122.06 740.06 1073.23 775.98 1024.4 811.9 1015.54 862.61 1066.58 869.25 1115.42 833.33 1164.25 797.41 1173.1 746.7"></polygon>
                <polygon id="Shape" points="1060.47 656.32 1011.63 692.24 962.8 728.16 953.95 778.87 1004.99 785.52 1053.82 749.6 1102.65 713.67 1111.51 662.97"></polygon>
                <polygon id="Shape" points="998.87 572.59 950.04 608.51 901.21 644.43 892.35 695.14 943.39 701.78 992.22 665.86 1041.06 629.94 1049.91 579.23"></polygon>
                <polygon id="Shape" points="937.27 488.86 888.44 524.78 839.61 560.7 830.76 611.4 881.8 618.05 930.63 582.13 979.46 546.2 988.32 495.5"></polygon>
                <polygon id="Shape" points="875.68 405.12 826.85 441.04 778.02 476.96 769.16 527.67 820.2 534.31 869.03 498.39 917.87 462.47 926.72 411.76"></polygon>
                <polygon id="Shape" points="814.08 321.39 765.25 357.31 716.42 393.23 707.56 443.93 758.61 450.58 807.44 414.66 856.27 378.74 865.13 328.03"></polygon>
                <polygon id="Shape" points="752.49 237.65 703.66 273.57 654.83 309.49 645.97 360.2 697.01 366.84 745.84 330.92 794.68 295 803.53 244.3"></polygon>
                <polygon id="Shape" points="1714.7 1207.42 1665.87 1243.34 1617.04 1279.26 1608.18 1329.97 1659.22 1336.61 1708.06 1300.69 1756.89 1264.77 1765.74 1214.06"></polygon>
                <polygon id="Shape" points="1653.11 1123.69 1604.28 1159.61 1555.44 1195.53 1546.59 1246.23 1597.63 1252.88 1646.46 1216.96 1695.29 1181.04 1704.15 1130.33"></polygon>
                <polygon id="Shape" points="1591.51 1039.95 1542.68 1075.87 1493.85 1111.79 1484.99 1162.5 1536.03 1169.14 1584.87 1133.22 1633.7 1097.3 1642.55 1046.59"></polygon>
                <polygon id="Shape" points="1529.91 956.22 1481.08 992.14 1432.25 1028.06 1423.4 1078.76 1474.44 1085.41 1523.27 1049.49 1572.1 1013.57 1580.96 962.86"></polygon>
                <polygon id="Shape" points="1468.32 872.48 1419.49 908.4 1370.66 944.32 1361.8 995.03 1412.84 1001.67 1461.68 965.75 1510.51 929.83 1519.36 879.13"></polygon>
                <polygon id="Shape" points="1406.72 788.75 1357.89 824.67 1309.06 860.59 1300.2 911.29 1351.25 917.94 1400.08 882.02 1448.91 846.1 1457.77 795.39"></polygon>
                <polygon id="Shape" points="1345.13 705.01 1296.3 740.93 1247.47 776.85 1238.61 827.56 1289.65 834.2 1338.49 798.28 1387.32 762.36 1396.17 711.66"></polygon>
                <polygon id="Shape" points="1283.53 621.28 1234.7 657.2 1185.87 693.12 1177.01 743.83 1228.06 750.47 1276.89 714.55 1325.72 678.63 1334.58 627.92"></polygon>
                <polygon id="Shape" points="1221.94 537.54 1173.11 573.46 1124.28 609.38 1115.42 660.09 1166.46 666.73 1215.3 630.81 1264.13 594.89 1272.98 544.19"></polygon>
                <polygon id="Shape" points="1160.34 453.81 1111.51 489.73 1062.68 525.65 1053.82 576.36 1104.87 583 1153.7 547.08 1202.53 511.16 1211.39 460.45"></polygon>
                <polygon id="Shape" points="1098.75 370.07 1049.92 405.99 1001.09 441.91 992.23 492.62 1043.27 499.27 1092.1 463.35 1140.93 427.42 1149.79 376.72"></polygon>
                <polygon id="Shape" points="1037.15 286.34 988.32 322.26 939.49 358.18 930.63 408.89 981.68 415.53 1030.51 379.61 1079.34 343.69 1088.2 292.98"></polygon>
                <polygon id="Shape" points="975.56 202.61 926.73 238.53 877.9 274.45 869.04 325.15 920.08 331.8 968.91 295.88 1017.74 259.95 1026.6 209.25"></polygon>
                <polygon id="Shape" points="913.96 118.87 865.13 154.79 816.3 190.71 807.44 241.42 858.49 248.06 907.32 212.14 956.15 176.22 965.01 125.51"></polygon>
                <polygon id="Shape" points="1927.22 1095.28 1876.18 1088.64 1827.34 1124.56 1778.51 1160.48 1769.66 1211.19 1820.7 1217.83 1869.53 1181.91 1918.36 1145.99"></polygon>
                <polygon id="Shape" points="1814.58 1004.91 1765.75 1040.82 1716.92 1076.75 1708.06 1127.45 1759.1 1134.1 1807.93 1098.18 1856.77 1062.26 1865.62 1011.55"></polygon>
                <polygon id="Shape" points="1752.99 921.17 1704.15 957.09 1655.32 993.01 1646.47 1043.72 1697.51 1050.36 1746.34 1014.44 1795.17 978.52 1804.03 927.81"></polygon>
                <polygon id="Shape" points="1691.39 837.44 1642.56 873.36 1593.73 909.28 1584.87 959.98 1635.91 966.63 1684.74 930.71 1733.58 894.79 1742.43 844.08"></polygon>
                <polygon id="Shape" points="1629.79 753.7 1580.96 789.62 1532.13 825.54 1523.28 876.25 1574.32 882.89 1623.15 846.97 1671.98 811.05 1680.84 760.35"></polygon>
                <polygon id="Shape" points="1568.2 669.97 1519.37 705.89 1470.54 741.81 1461.68 792.51 1512.72 799.16 1561.55 763.24 1610.39 727.32 1619.24 676.61"></polygon>
                <polygon id="Shape" points="1506.6 586.23 1457.77 622.15 1408.94 658.07 1400.08 708.78 1451.13 715.42 1499.96 679.5 1548.79 643.58 1557.65 592.88"></polygon>
                <polygon id="Shape" points="1445.01 502.5 1396.18 538.42 1347.35 574.34 1338.49 625.04 1389.53 631.69 1438.36 595.77 1487.2 559.85 1496.05 509.14"></polygon>
                <polygon id="Shape" points="1383.41 418.76 1334.58 454.68 1285.75 490.6 1276.89 541.31 1327.94 547.95 1376.77 512.03 1425.6 476.11 1434.46 425.41"></polygon>
                <polygon id="Shape" points="1321.82 335.03 1272.99 370.95 1224.16 406.87 1215.3 457.58 1266.34 464.22 1315.17 428.3 1364 392.38 1372.86 341.67"></polygon>
                <polygon id="Shape" points="1260.22 251.29 1211.39 287.21 1162.56 323.13 1153.7 373.84 1204.75 380.48 1253.58 344.56 1302.41 308.64 1311.27 257.94"></polygon>
                <polygon id="Shape" points="1198.63 167.56 1149.8 203.48 1100.97 239.4 1092.11 290.11 1143.15 296.75 1191.98 260.83 1240.81 224.91 1249.67 174.2"></polygon>
                <polygon id="Shape" points="1137.03 83.83 1088.2 119.74 1039.37 155.66 1030.51 206.37 1081.56 213.02 1130.39 177.1 1179.22 141.17 1188.07 90.47"></polygon>
                <polygon id="Shape" points="1075.44 0.09 1026.61 36.01 977.77 71.93 968.92 122.64 1019.96 129.28 1068.79 93.36 1117.62 57.44 1126.48 6.73"></polygon>
            </g>
        </g>
    </g>
</svg>